<?xml version="1.0" encoding="UTF-8"?>
<svg id="_イヤー_1" xmlns="http://www.w3.org/2000/svg" viewBox="0 0 250 40.009"><g><path d="M88.637,11.992c-.451,0-.817,.178-1.118,.543l-5.41,6.445v-5.579c0-.778-.623-1.41-1.39-1.41-.462,0-.802,.162-1.136,.54l-10.495,12.528c-.213,.277-.308,.543-.308,.86,0,.72,.608,1.328,1.327,1.328,.387,0,.783-.184,1.036-.482l8.166-9.759v8.831c0,.778,.633,1.41,1.41,1.41,.767,0,1.39-.633,1.39-1.41v-2.73l5.117-6.102v8.831c0,.765,.646,1.41,1.41,1.41s1.41-.646,1.41-1.41V13.402c0-.778-.633-1.41-1.41-1.41Z"/><path d="M102.833,11.972c-4.266,0-7.607,3.359-7.607,7.648s3.341,7.649,7.607,7.649,7.628-3.36,7.628-7.649-3.35-7.648-7.628-7.648Zm0,12.56c-2.649,0-4.725-2.158-4.725-4.911s2.076-4.931,4.725-4.931,4.745,2.166,4.745,4.931-2.085,4.911-4.745,4.911Z"/><path d="M123.528,12.178h-7.959c-.744,0-1.327,.574-1.327,1.307,0,.744,.583,1.327,1.327,1.327h2.569v11.025c0,.765,.646,1.41,1.41,1.41s1.41-.646,1.41-1.41V14.813h2.569c.745,0,1.328-.583,1.328-1.327,0-.733-.583-1.307-1.328-1.307Z"/><path d="M138.037,12.178h-7.959c-.744,0-1.327,.574-1.327,1.307,0,.744,.583,1.327,1.327,1.327h2.569v11.025c0,.765,.646,1.41,1.41,1.41s1.41-.646,1.41-1.41V14.813h2.569c.745,0,1.328-.583,1.328-1.327,0-.733-.583-1.307-1.328-1.307Z"/><path d="M150.48,11.972c-4.266,0-7.607,3.359-7.607,7.648s3.341,7.649,7.607,7.649,7.628-3.36,7.628-7.649-3.35-7.648-7.628-7.648Zm0,12.56c-2.649,0-4.725-2.158-4.725-4.911s2.076-4.931,4.725-4.931,4.745,2.166,4.745,4.931-2.085,4.911-4.745,4.911Z"/><path d="M187.024,11.992c-.451,0-.817,.178-1.118,.543l-5.41,6.445v-5.579c0-.778-.623-1.41-1.39-1.41-.462,0-.802,.162-1.136,.54l-10.495,12.528c-.213,.277-.308,.543-.308,.86,0,.72,.608,1.328,1.327,1.328,.387,0,.783-.184,1.036-.482l8.166-9.759v8.831c0,.778,.633,1.41,1.41,1.41,.767,0,1.39-.633,1.39-1.41v-2.73l5.117-6.102v8.831c0,.765,.646,1.41,1.41,1.41s1.41-.646,1.41-1.41V13.402c0-.778-.633-1.41-1.41-1.41Z"/><path d="M204.761,11.992c-.778,0-1.41,.632-1.41,1.41v8.104c0,1.888-1.123,3.108-2.86,3.108-1.712,0-2.818-1.22-2.818-3.108V13.402c0-.778-.632-1.41-1.41-1.41s-1.41,.632-1.41,1.41v7.959c0,3.423,2.371,5.908,5.638,5.908,3.292,0,5.68-2.485,5.68-5.908v-7.959c0-.778-.633-1.41-1.41-1.41Z"/><path d="M217.852,18.425l-.917-.292c-.892-.255-1.916-.692-1.916-1.809,0-.964,.783-1.719,1.782-1.719,.894,0,1.529,.445,1.943,1.361,.234,.527,.633,.795,1.187,.795,.766,0,1.389-.623,1.389-1.39,0-1.42-1.719-3.399-4.519-3.399-2.624,0-4.602,1.809-4.602,4.208,0,3.19,2.579,4.012,3.43,4.283l1.055,.31c1.008,.311,2.085,.743,2.085,1.956,0,1.057-.865,1.885-1.968,1.885-.989,0-1.678-.491-2.112-1.513-.261-.522-.673-.787-1.225-.787-.766,0-1.389,.623-1.389,1.389,0,1.615,2.108,3.566,4.726,3.566,2.685,0,4.789-1.921,4.789-4.374,0-3.308-2.525-4.092-3.737-4.469Z"/><path d="M229.026,11.992c-.778,0-1.41,.632-1.41,1.41v12.436c0,.765,.646,1.41,1.41,1.41s1.41-.646,1.41-1.41V13.402c0-.778-.632-1.41-1.41-1.41Z"/><path d="M248.59,22.438c-.336,0-.696,.171-1.114,.54-.896,1.002-2.127,1.554-3.467,1.554-2.649,0-4.725-2.158-4.725-4.911s2.076-4.931,4.725-4.931c1.339,0,2.571,.552,3.483,1.571,.403,.352,.762,.522,1.098,.522,.778,0,1.41-.623,1.41-1.39,0-.277-.101-.676-.379-.953-1.387-1.568-3.432-2.467-5.612-2.467-4.266,0-7.607,3.359-7.607,7.648s3.341,7.649,7.607,7.649c2.189,0,4.235-.908,5.604-2.48,.285-.285,.387-.683,.387-.961,0-.767-.633-1.39-1.41-1.39Z"/></g><g><path d="M44.188,14.012c-6.478-.414-6.172-11.166-13.06-10.057-4.823,.777-5.56,9.327-7.868,9.327-2.416,0-4.551-11.117-10.527-11.117C7.964,2.166,4.68,13.353,3.133,18.684c-2.883,9.934-5.89,18.302,1.431,20.855,9.17,3.199,10.213-10.943,13.872-12.292,3.429-1.264,4.253,4.497,7.926,4.011,5.899-.781,3.607-9.172,6.951-9.707,3.373-.54,5.446,5.337,11.369,4.191,8.573-1.659,15.437-20.459,15.437-20.459,0,0-11.47,9.015-15.93,8.729Zm-33.305,.353c-.591,0-1.069-.812-1.069-1.814s.479-1.814,1.069-1.814,1.069,.812,1.069,1.814-.479,1.814-1.069,1.814Zm4.186,0c-.59,0-1.069-.812-1.069-1.814s.479-1.814,1.069-1.814,1.069,.812,1.069,1.814-.479,1.814-1.069,1.814Z"/><circle cx="62.898" cy="1.371" r="1.371"/></g></svg>