<svg
            xmlns="http://www.w3.org/2000/svg"
            width="200"
            height="50"
            viewBox="0 0 180.674 30"
          >
            <title>HARDCORE TANO*C</title>
            <path
              fill="#FFFFFF"
              d="M0,15A15,15,0,0,1,15,0a.841.841,0,0,1,0,1.681A13.32,13.32,0,1,0,28.317,15h0A.84.84,0,1,1,30,15,15,15,0,1,1,0,15ZM107.447,26.778,93.966,16.393l-3.3,0v10.42H88.128V13.85l6.7.007,13.487,10.391,3.047.018V13.838H113.9v12.98Zm44.536.032V17.761a6.133,6.133,0,0,0,1.163-3.6c0-.106-.011-.208-.016-.313h21.3l1.164-1.613h4.627l-2.987,4.141h-.742v.007h-21.97v7.888h11.83V26.81Zm-36.166,0V13.852h25c-.005.105-.016.207-.016.313a6.136,6.136,0,0,0,.786,3.008V26.81Zm2.535-2.535h20.7V16.387h-20.7ZM60.971,26.809V13.85l6.66.008L86.72,26.8H82.2L66.852,16.393l-3.347,0v3.859H69.97l3.783,2.534H63.5v4.027Zm-12.175,0V16.388H36.165V16.38h-.121l-2.988-4.142h4.628l1.163,1.614H59.4v2.536H51.33V26.809ZM17.7,22.638H12.3c-.041.756-.059,1.058-.059,1.058l-1.21-.041.723-13.2a.476.476,0,0,1,.468-.444h5.561a.478.478,0,0,1,.468.444l.714,13.2-1.2.041S17.737,23.394,17.7,22.638Zm-5.352-.945h5.316c-.174-3.514-.3-10.306-.334-10.918H12.673C12.64,11.387,12.5,18.179,12.348,21.693Zm107.493.695V18.213h17.587v4.174Zm22.421-8.222a4.713,4.713,0,1,1,4.713,4.713A4.714,4.714,0,0,1,142.262,14.165Zm5.4,2.454,1.2-.691-.656-1.136h1.311V13.41h-1.31l.655-1.135-1.2-.692-.655,1.136-.654-1.136-1.2.692.654,1.135H144.5v1.382h1.312l-.656,1.136,1.2.691.654-1.136Zm-127.7-6.557A2.043,2.043,0,0,1,22,8.026a1.905,1.905,0,0,1,.2.021,2.026,2.026,0,0,1,1.816,1.816,1.815,1.815,0,0,1,.02.2,2.038,2.038,0,0,1-4.075,0Zm.644-.684a.942.942,0,1,0,.949-.932A.95.95,0,0,0,20.61,9.378Zm-14.653.684a2.035,2.035,0,1,1,2.031,2.032A2.042,2.042,0,0,1,5.957,10.062ZM6.6,9.378a.941.941,0,1,0,.948-.932A.943.943,0,0,0,6.6,9.378Zm167.061-.007V3.843h6.946v.943h-5.368V6.017h3.131v.943h-3.131V8.332h5.432V9.371Zm-13.76,0-2.736-2.089h-1.5V9.371h-1.553V3.843h5.815c1.039,0,1.526.3,1.526,1.071v1.3c0,.771-.488,1.071-1.526,1.071h-.895l3.13,2.089Zm-4.235-3.032h3.552c.486,0,.71-.075.71-.438V5.236c0-.365-.224-.439-.71-.439h-3.552ZM134.9,9.371c-1.275,0-1.684-.268-1.684-1.307V5.15c0-1.039.409-1.307,1.684-1.307h5c1.276,0,1.685.268,1.685,1.307V8.064c0,1.039-.409,1.307-1.685,1.307ZM134.8,8.332H140v-3.5H134.8ZM115.161,9.371c-1.276,0-1.684-.268-1.684-1.307V5.15c0-1.039.408-1.307,1.684-1.307h4.051c1.276,0,1.684.268,1.684,1.307v.526l-1.578.2V4.829h-4.262v3.5h4.262V7.143l1.578.267v.653c0,1.039-.408,1.307-1.684,1.307Zm-21.885,0V3.843h4.367c2.539,0,3.881,1.018,3.881,2.732a2.581,2.581,0,0,1-1.5,2.368,6.41,6.41,0,0,1-2.789.427Zm1.578-1.039h2.04c2,0,3-.407,3-1.778,0-1.125-.75-1.724-2.236-1.724h-2.8ZM79.31,9.371,76.574,7.282h-1.5V9.371H73.522V3.843h5.815c1.04,0,1.526.3,1.526,1.071v1.3c0,.771-.487,1.071-1.526,1.071h-.895l3.131,2.089ZM75.075,6.339h3.55c.487,0,.711-.075.711-.438V5.236c0-.365-.224-.439-.711-.439h-3.55ZM60.359,9.371l-.816-1.21h-4.3l-.789,1.21H52.874l3.841-5.528h1.526l3.893,5.528ZM55.912,7.164h2.974l-1.46-2.25ZM39.331,9.371V6.993H34.4V9.371H32.819V3.843H34.4V5.986h4.933V3.843h1.592V9.371Z"
            ></path>
</svg>