<?xml version="1.0" encoding="utf-8"?>
<!-- Generator: Adobe Illustrator 27.8.1, SVG Export Plug-In . SVG Version: 6.00 Build 0)  -->
<svg version="1.1" id="Calque_1" xmlns="http://www.w3.org/2000/svg" xmlns:xlink="http://www.w3.org/1999/xlink" x="0px" y="0px"
	 viewBox="0 0 88 38" style="enable-background:new 0 0 88 38;" xml:space="preserve">
<style type="text/css">
	.st0{enable-background:new    ;}
	.st1{fill:#202020;}
</style>
<g class="st0">
	<path class="st1" d="M18.9,13.8V29c0,5.6-3.9,9.1-9.5,9.1c-4.3,0-7.4-2.3-8.5-5.7L4.6,31c0.9,1.9,2.5,3,5,3c2.8,0,4.5-1.5,4.5-4.6
		v-0.8c-1.1,1.3-2.7,2-4.7,2c-4.6,0-8.2-3.8-8.2-8.7c0-4.8,3.5-8.7,8.2-8.7c2,0,3.6,0.8,4.7,2.1v-1.6H18.9z M14,22
		c0-2.7-1.7-4.6-4-4.6c-2.3,0-4,1.9-4,4.6c0,2.7,1.7,4.6,4,4.6C12.4,26.6,14,24.7,14,22z"/>
	<path class="st1" d="M37.6,20.4V31h-4.4v-2.1c-1,1.6-2.5,2.4-4.7,2.4c-3.4,0-5.6-2.1-5.6-5.2c0-2.8,1.9-4.4,5.5-5l4.4-0.7
		c-0.1-1.8-1.3-3-3.1-3c-1.9,0-3,1.1-3.6,3l-3.7-1.1c0.6-3.5,3.5-6,7.6-6C34.8,13.3,37.6,16.2,37.6,20.4z M32.8,24.3v-0.6l-3,0.6
		c-1.2,0.2-2.1,0.8-2.1,2c0,1.1,0.8,1.8,2,1.8C31.6,28.1,32.8,26.3,32.8,24.3z"/>
	<path class="st1" d="M48.8,23.9l-2.4,2.7V31h-4.8V7.2h4.8v13.3l6-6.7h5.7L52,20.5L58.6,31h-5.5L48.8,23.9z"/>
	<path class="st1" d="M77,13.8V31h-4.8v-2.8c-1.2,2-3,3.1-5.4,3.1c-3.6,0-6.2-2.6-6.2-6.7V13.8h4.8V24c0,1.9,1.1,3.3,2.9,3.3
		c1.9,0,3.9-1.5,3.9-5.3v-8.1H77z"/>
	<path class="st1" d="M80.8,7.2h5.3l-0.9,16.7h-3.4L80.8,7.2z M81,26.2h5V31h-5V26.2z"/>
</g>
</svg>
